<svg width="151" height="123" viewBox="0 0 151 123" fill="none" xmlns="http://www.w3.org/2000/svg">
<path d="M135.139 31.1763C135.23 32.4953 135.23 33.8144 135.23 35.1455C135.23 75.7069 104.3 122.487 47.7416 122.487V122.462C31.0342 122.487 14.6738 117.709 0.608887 108.701C3.03828 108.992 5.47985 109.138 7.92752 109.144C21.7732 109.157 35.2232 104.519 46.1159 95.9785C32.9582 95.7293 21.4201 87.1647 17.3894 74.6614C21.9985 75.5489 26.7477 75.3665 31.2716 74.1326C16.9266 71.2393 6.60627 58.6569 6.60627 44.0444C6.60627 43.9106 6.60627 43.783 6.60627 43.6553C10.8805 46.032 15.6663 47.351 20.5616 47.4969C7.05074 38.4826 2.88606 20.5391 11.0449 6.51005C26.6564 25.6875 49.69 37.3459 74.4162 38.5798C71.9381 27.9183 75.3234 16.7461 83.3118 9.25142C95.6963 -2.37054 115.174 -1.77485 126.816 10.5826C133.702 9.22711 140.302 6.70456 146.342 3.13044C144.047 10.2361 139.243 16.272 132.825 20.1075C138.92 19.3902 144.875 17.7612 150.482 15.2751C146.354 21.4508 141.155 26.8302 135.139 31.1763Z" fill="white"/>
</svg>
